<svg xmlns="http://www.w3.org/2000/svg" width="740" height="337" viewBox="0 0 740 337"><path fill="#021a37" d="M67.866 52.483c9.058-.515 21.323-.181 30.554-.182l55.489-.003 73.152.005c12.589.002 25.233-.04 37.83.06 1.551.012 6.61.457 7.98 1.228 1.295 1.05 1.982 3.67 2.076 5.204.197 3.241.123 6.545.076 9.785-.184 12.894.146 25.791-.02 38.683-.011.89-.244 3.676-.889 4.216-1.576 1.318-4.285 1.057-6.229 1.162-2.527-.066-7.747.629-9.622-1.177-.66-.635-1.194-3.125-1.249-4.05-.246-4.115-.142-8.506-.139-12.643l.031-23.975-117.892.068-38.177-.005c-6.177-.007-15.047.216-20.982-.217-.403 8.788-.07 20.106-.071 29.077l-.012 56.284-.03 63.777c-.008 11.668-.289 24.753.115 36.312 7.632.356 17.072.115 24.847.098l152.032-.012c.847-12.294-.638-25.141.586-37.401.437-4.375 17.069-2.788 17.182-.998 1.078 17.009.342 34.38.395 51.465.018 6.008-6.286 6.378-10.828 6.436-6.868.088-13.76.016-20.63.008l-41.321-.03-88.634.005c-13.733-.007-27.464.101-41.196.049-3.121-.012-9.989-.969-10.505-4.88-.908-6.884-.55-14.384-.549-21.363l.005-40.247.007-98.396c-.003-16.236-.042-32.483-.023-48.718.002-1.532.075-5.95.943-7.181 1.223-1.735 3.75-2.156 5.698-2.444"/><path fill="#021a37" d="M100.977 86.415c3.582-.314 9.862-.143 13.628-.144l24.963-.008 23.494-.025c4.33-.002 8.862-.094 13.182.169 2.059.125 3.076 1.603 4.278 3.115 1.471 16.355-.027 16.26-15.335 16.279l-17.384-.002c-7.836-.006-24.55.477-31.784-.206-.396 16.702-.195 34.689-.047 51.448 6.714.255 18.168-1.206 23.987 1.597 1.532.738 1.51 14.772.047 15.62-4.977 2.888-18.079 1.719-24.026 1.725-.305 14.309-.152 29.74-.011 44.078-.021.727-.09.442.398 1.093 2.028.431 3.937.119 5.993.121 17.619.023 35.313-.174 52.921.135 4.8.594 3.405 6.824 3.634 10.14.17 2.465.045 6.188-1.56 7.81-1.503.549-3.231.701-4.825.708-21.972.095-44.071.032-66.029.065-6.347.01-9.384-.25-9.43-7.022-.066-9.69-.056-19.605-.055-29.261l.006-53.763-.02-36.642c-.004-5.766-.654-20.128 1.103-25.015z"/><path fill="#0155a8" d="M214.812 130.969c18.697-1.805 35.317 11.883 37.123 30.573s-11.888 35.305-30.585 37.11c-18.696 1.804-35.316-11.884-37.121-30.574-1.806-18.689 11.887-35.303 30.583-37.109"/><path fill="#021a37" d="M524.514 103.089c11.825.06 19.971 3.572 26.617 13.81 4.133 6.367 3.751 12.546 3.904 19.864-13.89.611-29.3-.315-43.435.143.919 3.619 1.889 7.544 5 10.015 5.335 4.239 14.771 4.13 21.04 2.299 2.61-.762 5.995-2.129 8.689-2.783.595-.145.951.496 1.374.989 2.197 3.11 3.41 5.06 4.777 8.601-7.011 2.297-11.631 6.901-20.76 7.51-8.871.591-17.953-1.762-24.744-7.605-5.633-4.846-9.345-12.781-9.566-20.163-.293-9.768.476-15.758 7.221-23.184 4.875-5.368 12.765-9.017 19.883-9.496m-12.776 24.101 16.343-.026c3.287.002 9.212.158 12.274-.13-2.743-8.029-6.01-13.398-15.706-12.858-9.388 2.736-9.921 3.761-12.911 13.014"/><path fill="#021a37" d="M596.768 103.062c7.715-.229 13.468.811 18.963 6.714 2.832 2.952 5.034 8.053 5.068 12.227.107 13.334.385 27.265-.09 40.565-5.023.259-9.315.158-14.322-.044.343-8.207 1.052-35.069-1.61-41.57-.838-2.046-1.999-3.485-4.074-4.34-4.37-1.801-10.235-1.371-14.551.36-5.751 4.126-5.946 6.098-5.972 12.967-.043 10.85.198 21.79-.127 32.628-4.655.328-9.066.169-13.709-.082-.288-6.62-.122-14.278-.121-20.976l.017-36.254 13.585-.101c.003 2.059-.044 4.101.201 6.145.786.22 1.753-1.195 2.505-1.685 4.656-3.038 8.564-6.072 14.237-6.554"/><path fill="#021a37" d="M366.5 84.665c20.492-.043 41.445.223 61.874-.12-.355 3.904-.191 10.093-.191 14.18-5.826-.028-45.096-.457-47.116.647-1.61 1.831-1.75 16.214-.509 17.961l1.276.066c10.617-.011 21.529-.138 32.117.15l-.232 15.224c-15.779.279-32.333.195-48.109-.001l-.02-32.583c-.001-2.943-.169-12.864.241-15.073z"/><path fill="#021a37" d="M480.005 103.374c4.837-.237 9.849-.128 14.681.203a22 22 0 0 1-1.107 2.687c-2.358 4.774-4.088 9.565-5.749 14.612-1.98 4.11-3.84 8.365-5.499 12.612-3.835 9.817-7.773 18.908-10.999 28.97-4.717.496-9.051.464-13.755-.019-6.236-19.12-15.337-37.967-22.21-56.912-.344-.946-.24-1.269.226-2.058 3.912-.149 9.682-.377 13.491.098 2.517 5.33 5.376 10.945 7.186 16.543 2.36 7.3 5.69 14.085 8.774 21.088 5.57-12.919 9.072-25.188 14.961-37.824"/><path fill="#021a37" d="M640.474 86.839c2.132.549 11.549.43 14.047.204-.746 5.218-.439 11.69-.27 16.99 5.292.059 10.528.023 15.819-.024-.091 4.326-.183 8.242.022 12.565-4.359-.357-11.529-.144-16.095-.145.235 9.87-.608 20.575.645 30.287.757 5.866 11.907 2.616 15.547 1.512-.1 2.693-.136 5.432-.196 8.13.134 1.104.072 2.676.06 3.828-8.212 3.074-18.325 5.622-25.619-1.235-4.607-4.331-4.523-10.725-4.529-16.598-.01-8.608.036-17.261.07-25.891a326 326 0 0 0-9.745.061l-.075-12.468c3.364.039 6.445-.01 9.797-.108.125-3.432-.751-15.441.522-17.108"/><path fill="#021a37" d="M427.373 193.276c3.567-.202 7.156.022 10.367 1.548 14.091 6.7 13.306 30.788-1.78 35.959-7.855 2.693-11.634-.405-18.267-3.563l.012 5.759c.032 3.937-.063 7.925-.122 11.865l-9.448-.02c-.087-2.076-.12-4.148-.101-6.225.135-14.504-.134-29.044.109-43.542l4.887-.057c1.343-.005 2.581.057 3.509.979l-.28 1.61.557.653c1.019-.083 7.265-4.027 10.557-4.966m1.3 29.975a11.047 11.047 0 0 0 8.514-15.841 11.05 11.05 0 0 0-11.309-6.08c-6.057.77-10.343 6.303-9.571 12.358s6.309 10.337 12.366 9.563"/><path fill="#0155a8" d="M574.668 182.717c2.508.112 5.045.104 7.511.205 7.446.326 16.859-1.211 22.769 4.404 5.92 5.625 5.952 15.551.209 21.303-4.469 4.476-8.648 4.276-14.359 4.399l-7.673-.054c-.229 6.051-.054 12.072-.226 18.129l-8.673.025-.042-31.006c-.001-3.306-.219-14.931.484-17.405m8.477 22.852c6.952-1.047 9.404 1.413 15.123-3.025 2.969-3.643 3.284-6.02-.619-9.238-4.118-3.395-9.464-2.748-14.449-2.646-.246 5.242-.29 9.639-.055 14.909"/><path fill="#0155a8" d="M653.446 195.866c3.753-.615 9.405-.043 12.752 1.871 8.511 4.868 11.302 16.569 6.58 25.008-2.856 5.103-7.996 7.542-13.474 9.043-9.794 1.118-20.169-4.268-21.932-14.85-.518-4.812-.502-9.778 2.672-13.711 4.167-5.165 6.991-6.478 13.402-7.361m3.523 28.932c5.711-1.168 8.125-5.423 9.435-10.643-1.593-6.443-3.119-11.062-10.853-11.094-3.344.706-6.344 1.285-8.25 4.51-4.802 8.128.987 16.353 9.668 17.227"/><path fill="#0155a8" d="M365.719 141.25c4.645-.046 9.421.032 14.077.052l.354 6.92c16.101.006 32.282-.073 48.376.158.011 5.074.085 10.287-.159 15.342l-62.498-.08z"/><path fill="#021a37" d="M378.861 180.287c8.861-.353 12.283-.029 19.863 4.886-.556 2.148-2.177 5.177-3.18 7.3-3.766-2.031-6.531-2.838-10.531-3.569-3.448-.631-11.425 1.536-10.66 5.578 1.393 7.349 18.145 6.757 22.716 12.213 2.387 2.848 3.86 5.477 3.848 9.288-.415 12.504-8.571 15.242-19.084 15.216-6.222.119-13.387-1.832-18.485-5.413.892-2.515 2.3-5.662 3.34-8.178 6.264 3.882 9.918 4.618 16.986 5.357 9.134.955 8.356-8.856 6.507-9.472-9.293-3.097-15.925-4.043-23.732-10.858-4.409-11.693.875-19.364 12.412-22.348"/><path fill="#021a37" d="M545.3 193.287c7.932-.464 9.483.887 16.292 4.473 3.897 6.583 4.464 9.448 5.075 16.936-5.664.64-21.847.134-28.012.091.542 3.81 1.586 5.883 5.424 7.562 5.739 2.51 10.236.874 15.731-1.259.464-.309.928-.286 1.494-.341.985.545 2.088 2.015 2.457 3.056 1.322 3.741-2.345 5.34-5.037 6.197-6.648 2.117-13.27 2.359-19.573-.941-3.584-1.861-7.57-5.929-8.555-9.946-1.174-4.793-1.306-12.617 1.185-17.015 3.005-5.305 8.005-7.319 13.519-8.813m2.925 15.062c1.685.072 7.059.672 8.128.038.575-.673.419-.347.55-1.266-1.027-3.465-5.054-6.812-8.691-7.272-2.938.495-9.707 4.591-9.604 7.784.317.439.542.958 1.062.944 2.987-.08 5.536-.437 8.555-.228"/><path fill="#021a37" d="M466.903 193.725c6.145-.259 8.149.657 13.765 2.983 5.217 7.026 4.348 12.01 4.348 20.408 0 4.469-.06 8.97.036 13.449-2.625-.112-4.869.237-7.52-.109-.777-.878-.515-1.028-.576-2.519-2.822-1.412-10.122 9.78-23.614-1.138-2.621-3.977-2.116-7.166-1.57-11.566 1.033-1.882 3.778-4.143 5.663-5.078 6.473-3.21 12.45-2.082 18.91-.058-.188-5.224-.515-5.475-4.527-8.779-5.359-.881-8.054.22-13.134 1.347-.782.173-1.376-.421-1.915-.895-.773-1.47-.516-3.921-.484-5.671 3.704-1.006 6.801-1.867 10.618-2.374m4.144 30.811c1.915-1.546 5.025-3.583 5.149-6.252.206-4.436-6.781-4.6-9.754-4.379-10.197 4.388-5.174 12.109 4.605 10.631"/><path fill="#0155a8" d="M215.106 93.736c7.908-1.572 15.597 3.55 17.19 11.452 1.593 7.901-3.512 15.6-11.412 17.213-7.929 1.617-15.664-3.508-17.263-11.437-1.598-7.93 3.548-15.65 11.485-17.228"/><path fill="#0155a8" d="M215.419 207.126c7.875-1.43 15.416 3.798 16.836 11.671 1.421 7.873-3.819 15.405-11.697 16.815-7.863 1.407-15.381-3.819-16.799-11.678s3.8-15.381 11.66-16.808"/><path fill="#0155a8" d="M168.521 178.195c18.84-.334 21.952 24.82 2.946 28.649-11.782.915-18.618-9.354-14.584-20.236.875-2.359 2.144-3.998 3.59-6.047 3.006-1.435 4.76-1.95 8.048-2.366"/><path fill="#0155a8" d="M263.969 178.257c7.889-1.145 15.204 4.346 16.303 12.239s-4.437 15.173-12.339 16.225c-7.837 1.044-15.046-4.435-16.136-12.263-1.09-7.827 4.348-15.066 12.172-16.201"/><path fill="#0155a8" d="M165.723 123.25c4.149-.209 7.825-.607 11.772 1.485 6.737 3.57 8.414 12.78 4.998 19.206-1.996 3.755-5.395 5.332-9.325 6.466-8.942 2.48-17.444-4.122-17.54-13.211-.056-5.285 2.418-9.055 5.79-12.695 1.501-.586 2.754-.869 4.305-1.251"/><path fill="#0155a8" d="M261.953 123.213c7.511-2.306 15.466 1.934 17.736 9.453 2.27 7.52-2.011 15.451-9.544 17.683-7.481 2.216-15.347-2.027-17.602-9.494-2.254-7.467 1.952-15.351 9.41-17.642"/><path fill="#021a37" d="M508.271 193.683c7.28-.508 9.546.299 16.039 2.982l-1.908 7.951c-4.782-1.869-10.142-4.655-15.225-2.475-9.095 3.902-7.999 17.498 1.048 20.804 5.466 1.997 9.928-.314 14.744-2.501l.104.035c.784.684 2.245 5.661 2.689 7.002-2.868 1.861-4.239 2.776-7.752 3.564-10.666 2.39-23.106-2.727-25.817-14.018-.917-3.818-.439-10.343 1.775-13.617 1.346-1.99 3.052-3.951 4.464-6.064 2.346-1.06 7.481-3.279 9.839-3.663"/><path fill="#0155a8" d="M633.982 195.548c1.317-.028 1.033-.228 1.828.473.559 2.065.24 5.499.167 7.748-12.142-.405-13.12 5.114-13.125 15.896-.001 3.781.02 7.736.032 11.531-2.032-.009-6.137.182-8.056-.375-.219-.064-.303-.514-.412-.811-.196-8.992-.6-25.478.048-34.194l8.531-.097c-.053 1.322-.139 2.233.102 3.535.818.228 4.078-2.441 5.805-2.906 2.117-.57 2.923-.612 5.08-.8"/></svg>