<svg width="797" height="302" viewBox="0 0 797 302" fill="none" xmlns="http://www.w3.org/2000/svg">
<path d="M50.7004 41.2876C59.7584 40.7726 72.0234 41.1066 81.2544 41.1056L136.743 41.1026L209.895 41.1076C222.484 41.1096 235.128 41.0676 247.725 41.1676C249.276 41.1796 254.335 41.6246 255.705 42.3956C257 43.4456 257.687 46.0656 257.781 47.5996C257.978 50.8406 257.904 54.1446 257.857 57.3846C257.673 70.2786 258.003 83.1756 257.837 96.0676C257.826 96.9576 257.593 99.7436 256.948 100.284C255.372 101.602 252.663 101.341 250.719 101.446C248.192 101.38 242.972 102.075 241.097 100.269C240.437 99.6336 239.903 97.1436 239.848 96.2186C239.602 92.1036 239.706 87.7126 239.709 83.5756L239.74 59.6006L121.848 59.6686L83.6714 59.6636C77.4944 59.6566 68.6244 59.8796 62.6894 59.4466C62.2864 68.2346 62.6194 79.5526 62.6184 88.5236L62.6064 144.808L62.5764 208.585C62.5684 220.253 62.2874 233.338 62.6914 244.897C70.3234 245.253 79.7634 245.012 87.5384 244.995L239.57 244.983C240.417 232.689 238.932 219.842 240.156 207.582C240.593 203.207 257.225 204.794 257.338 206.584C258.416 223.593 257.68 240.964 257.733 258.049C257.751 264.057 251.447 264.427 246.905 264.485C240.037 264.573 233.145 264.501 226.275 264.493L184.954 264.463L96.3204 264.468C82.5874 264.461 68.8564 264.569 55.1244 264.517C52.0034 264.505 45.1354 263.548 44.6194 259.637C43.7114 252.753 44.0694 245.253 44.0704 238.274L44.0754 198.027L44.0824 99.6306C44.0794 83.3946 44.0404 67.1476 44.0594 50.9126C44.0614 49.3806 44.1344 44.9626 45.0024 43.7316C46.2254 41.9966 48.7524 41.5756 50.7004 41.2876Z" fill="#021938"></path>
<path d="M83.8106 75.2196C87.3926 74.9056 93.6726 75.0766 97.4386 75.0756L122.402 75.0676L145.896 75.0426C150.226 75.0406 154.758 74.9486 159.078 75.2116C161.137 75.3366 162.154 76.8146 163.356 78.3266C164.827 94.6816 163.329 94.5866 148.021 94.6056L130.637 94.6036C122.801 94.5976 106.087 95.0806 98.8526 94.3976C98.4566 111.1 98.6576 129.087 98.8056 145.846C105.52 146.101 116.974 144.64 122.793 147.443C124.325 148.181 124.303 162.215 122.84 163.063C117.863 165.951 104.761 164.782 98.8136 164.788C98.5086 179.097 98.6616 194.528 98.8026 208.866C98.7816 209.593 98.7126 209.308 99.2006 209.959C101.229 210.39 103.138 210.078 105.194 210.08C122.813 210.103 140.507 209.906 158.115 210.215C162.915 210.809 161.52 217.039 161.749 220.355C161.919 222.82 161.794 226.543 160.189 228.165C158.686 228.714 156.958 228.866 155.364 228.873C133.392 228.968 111.293 228.905 89.3346 228.938C82.9876 228.948 79.9506 228.688 79.9046 221.916C79.8386 212.226 79.8486 202.311 79.8496 192.655L79.8556 138.892L79.8356 102.25C79.8316 96.4836 79.1816 82.1216 80.9386 77.2346L83.8106 75.2196Z" fill="#021938"></path>
<path d="M197.646 119.773C216.343 117.968 232.963 131.656 234.769 150.346C236.575 169.036 222.881 185.651 204.184 187.456C185.488 189.26 168.868 175.572 167.063 156.882C165.257 138.193 178.95 121.579 197.646 119.773Z" fill="#0155A8"></path>
<path d="M197.94 82.5414C205.848 80.9694 213.537 86.0914 215.13 93.9934C216.723 101.894 211.618 109.593 203.718 111.206C195.789 112.823 188.054 107.698 186.455 99.7694C184.857 91.8394 190.003 84.1194 197.94 82.5414Z" fill="#0155A8"></path>
<path d="M198.253 195.931C206.128 194.501 213.669 199.729 215.089 207.602C216.51 215.475 211.27 223.007 203.392 224.417C195.529 225.824 188.011 220.598 186.593 212.739C185.175 204.88 190.393 197.358 198.253 195.931Z" fill="#0155A8"></path>
<path d="M151.355 166.999C170.195 166.665 173.307 191.819 154.301 195.648C142.519 196.563 135.683 186.294 139.717 175.412C140.592 173.053 141.861 171.414 143.307 169.365C146.313 167.93 148.067 167.415 151.355 166.999Z" fill="#0155A8"></path>
<path d="M246.803 167.061C254.692 165.916 262.007 171.407 263.106 179.3C264.205 187.193 258.669 194.473 250.767 195.525C242.93 196.569 235.721 191.09 234.631 183.262C233.541 175.435 238.979 168.196 246.803 167.061Z" fill="#0155A8"></path>
<path d="M148.557 112.055C152.706 111.846 156.382 111.448 160.329 113.54C167.066 117.11 168.743 126.32 165.327 132.746C163.331 136.501 159.932 138.078 156.002 139.212C147.06 141.692 138.558 135.09 138.462 126.001C138.406 120.716 140.88 116.946 144.252 113.306C145.753 112.72 147.006 112.437 148.557 112.055Z" fill="#0155A8"></path>
<path d="M244.787 112.017C252.298 109.711 260.253 113.951 262.523 121.47C264.793 128.99 260.512 136.921 252.979 139.153C245.498 141.369 237.632 137.126 235.377 129.659C233.123 122.192 237.329 114.308 244.787 112.017Z" fill="#0155A8"></path>
<path d="M557.452 66.7969C573.903 66.8803 585.235 71.7661 594.481 86.0087C600.23 94.8662 599.699 103.462 599.912 113.643C580.589 114.493 559.151 113.204 539.487 113.841C540.766 118.876 542.115 124.336 546.443 127.774C553.865 133.671 566.992 133.519 575.713 130.972C579.344 129.912 584.053 128.01 587.8 127.101C588.628 126.899 589.123 127.791 589.712 128.476C592.768 132.803 594.456 135.516 596.357 140.442C586.604 143.637 580.177 150.042 567.477 150.889C555.136 151.711 542.502 148.438 533.054 140.31C525.218 133.568 520.054 122.529 519.747 112.26C519.339 98.671 520.409 90.338 529.792 80.0073C536.574 72.5396 547.55 67.4632 557.452 66.7969ZM539.679 100.325L562.415 100.289C566.987 100.292 575.23 100.509 579.49 100.108C575.674 88.9385 571.129 81.4694 557.64 82.2206C544.58 86.0268 543.839 87.4527 539.679 100.325Z" fill="#021938"></path>
<path d="M657.968 66.7607C668.701 66.4421 676.704 67.8889 684.349 76.1009C688.289 80.2076 691.352 87.3039 691.399 93.1105C691.548 111.66 691.935 131.04 691.274 149.543C684.286 149.903 678.315 149.762 671.35 149.481C671.827 138.064 672.813 100.695 669.11 91.6512C667.944 88.8049 666.329 86.8031 663.443 85.6136C657.363 83.1081 649.204 83.7063 643.2 86.1144C635.199 91.8543 634.928 94.5977 634.892 104.154C634.832 119.248 635.167 134.467 634.715 149.544C628.239 150 622.103 149.779 615.644 149.43C615.243 140.221 615.474 129.567 615.476 120.249L615.499 69.8143L634.398 69.6738C634.402 72.5382 634.337 75.3789 634.678 78.2224C635.771 78.5285 637.116 76.56 638.163 75.8783C644.64 71.652 650.076 67.4312 657.968 66.7607Z" fill="#021938"></path>
<path d="M337.63 41.1669C366.137 41.1071 395.286 41.4772 423.706 41C423.212 46.4311 423.44 55.0409 423.44 60.7265C415.336 60.6876 360.705 60.0908 357.895 61.6266C355.655 64.1738 355.46 84.1828 357.187 86.6131L358.962 86.7049C373.732 86.6896 388.912 86.513 403.642 86.9136L403.319 108.093C381.368 108.481 358.339 108.364 336.392 108.091L336.364 62.7632C336.363 58.669 336.129 44.8674 336.699 41.7943L337.63 41.1669Z" fill="#021938"></path>
<path d="M495.534 67.1907C502.263 66.861 509.236 67.0126 515.958 67.4731C515.527 68.7517 515.013 70.0004 514.418 71.2111C511.138 77.8525 508.731 84.5175 506.42 91.5387C503.666 97.2563 501.078 103.176 498.77 109.084C493.435 122.741 487.957 135.388 483.469 149.386C476.907 150.076 470.878 150.031 464.334 149.359C455.658 122.76 442.997 96.5412 433.436 70.1859C432.958 68.8698 433.102 68.4205 433.75 67.3229C439.193 67.1156 447.22 66.7984 452.519 67.4592C456.02 74.874 459.997 82.6854 462.515 90.473C465.798 100.628 470.431 110.067 474.721 119.81C482.47 101.837 487.342 84.7693 495.534 67.1907Z" fill="#021938"></path>
<path d="M718.771 44.1914C721.737 44.9551 734.838 44.7896 738.313 44.4752C737.275 51.7342 737.702 60.7378 737.937 68.1109C745.299 68.193 752.583 68.1429 759.944 68.0775C759.817 74.0956 759.689 79.5434 759.974 85.5573C753.91 85.0607 743.936 85.357 737.584 85.3556C737.911 99.0863 736.738 113.979 738.481 127.489C739.534 135.65 755.046 131.129 760.109 129.593C759.97 133.339 759.92 137.15 759.837 140.903C760.023 142.439 759.937 144.626 759.92 146.228C748.496 150.505 734.427 154.049 724.28 144.51C717.871 138.485 717.988 129.59 717.98 121.42C717.966 109.445 718.03 97.4072 718.077 85.4015C713.558 85.3623 709.039 85.3906 704.52 85.4864L704.416 68.1415C709.096 68.1957 713.382 68.1276 718.045 67.9912C718.219 63.2168 717 46.5105 718.771 44.1914Z" fill="#021938"></path>
<path d="M422.315 192.262C427.277 191.981 432.27 192.292 436.737 194.415C456.34 203.736 455.248 237.246 434.261 244.44C423.333 248.186 418.076 243.876 408.849 239.483L408.865 247.495C408.91 252.971 408.778 258.519 408.696 264.001L395.552 263.973C395.431 261.085 395.385 258.202 395.412 255.313C395.599 235.136 395.225 214.908 395.563 194.739L402.362 194.66C404.23 194.653 405.952 194.739 407.243 196.022L406.854 198.262L407.629 199.17C409.046 199.055 417.735 193.568 422.315 192.262ZM424.124 233.961C426.551 233.652 428.87 232.768 430.887 231.382C432.904 229.995 434.56 228.148 435.719 225.992C436.878 223.836 437.505 221.435 437.548 218.988C437.591 216.541 437.049 214.119 435.968 211.924C434.553 209.051 432.277 206.692 429.456 205.176C426.636 203.659 423.412 203.061 420.235 203.466C411.809 204.537 405.847 212.234 406.921 220.658C407.995 229.081 415.697 235.038 424.124 233.961Z" fill="#021938"></path>
<path d="M627.225 177.572C630.714 177.728 634.243 177.717 637.674 177.857C648.032 178.311 661.127 176.173 669.349 183.984C677.584 191.809 677.629 205.618 669.639 213.62C663.422 219.847 657.609 219.568 649.664 219.739L638.99 219.664C638.671 228.082 638.914 236.458 638.675 244.885L626.61 244.919L626.551 201.785C626.55 197.186 626.247 181.014 627.225 177.572ZM639.017 209.363C648.689 207.906 652.1 211.329 660.056 205.155C664.186 200.087 664.624 196.78 659.195 192.303C653.466 187.58 646.029 188.48 639.094 188.622C638.752 195.915 638.691 202.032 639.017 209.363Z" fill="#0155A8"></path>
<path d="M736.817 195.864C742.038 195.008 749.901 195.804 754.557 198.467C766.398 205.239 770.28 221.517 763.711 233.257C759.738 240.356 752.588 243.749 744.967 245.837C731.342 247.392 716.909 239.9 714.456 225.178C713.735 218.484 713.758 211.576 718.173 206.104C723.97 198.919 727.899 197.092 736.817 195.864ZM741.718 236.113C749.663 234.488 753.022 228.569 754.844 221.307C752.628 212.344 750.505 205.918 739.746 205.873C735.094 206.855 730.92 207.661 728.269 212.147C721.589 223.455 729.642 234.897 741.718 236.113Z" fill="#0155A8"></path>
<path d="M336.543 119.887C343.005 119.823 349.649 119.932 356.126 119.959L356.619 129.586C379.018 129.595 401.528 129.485 423.917 129.806C423.932 136.865 424.035 144.117 423.696 151.149L336.752 151.038L336.543 119.887Z" fill="#0155A8"></path>
<path d="M354.826 174.195C367.153 173.704 371.914 174.155 382.459 180.992C381.685 183.98 379.43 188.194 378.035 191.147C372.796 188.322 368.949 187.199 363.384 186.182C358.588 185.305 347.491 188.319 348.555 193.942C350.493 204.166 373.797 203.342 380.156 210.932C383.477 214.894 385.526 218.552 385.509 223.853C384.932 241.248 373.586 245.057 358.961 245.021C350.305 245.187 340.337 242.473 333.245 237.491C334.486 233.992 336.445 229.614 337.892 226.114C346.606 231.515 351.689 232.538 361.522 233.566C374.229 234.895 373.146 221.246 370.574 220.389C357.646 216.081 348.42 214.765 337.559 205.284C331.426 189.018 338.776 178.346 354.826 174.195Z" fill="#021938"></path>
<path d="M586.369 192.279C597.403 191.633 599.561 193.513 609.033 198.501C614.455 207.659 615.243 211.645 616.093 222.062C608.214 222.952 585.701 222.248 577.125 222.189C577.879 227.489 579.331 230.373 584.67 232.708C592.654 236.2 598.91 233.924 606.554 230.957C607.2 230.527 607.845 230.559 608.633 230.483C610.003 231.241 611.537 233.286 612.051 234.734C613.89 239.938 608.788 242.163 605.044 243.355C595.795 246.3 586.583 246.637 577.814 242.046C572.829 239.457 567.283 233.798 565.913 228.21C564.28 221.542 564.096 210.657 567.562 204.539C571.742 197.159 578.698 194.357 586.369 192.279ZM590.438 213.232C592.782 213.333 600.258 214.167 601.745 213.285C602.545 212.349 602.328 212.802 602.51 211.524C601.082 206.704 595.479 202.047 590.42 201.408C586.332 202.096 576.916 207.794 577.059 212.236C577.5 212.847 577.813 213.569 578.536 213.55C582.692 213.438 586.238 212.942 590.438 213.232Z" fill="#021938"></path>
<path d="M477.308 192.885C485.856 192.525 488.644 193.799 496.457 197.035C503.715 206.809 502.506 213.743 502.506 225.426C502.506 231.643 502.422 237.904 502.556 244.135C498.904 243.98 495.782 244.465 492.094 243.984C491.013 242.762 491.378 242.554 491.293 240.479C487.367 238.515 477.212 254.085 458.442 238.896C454.796 233.364 455.499 228.927 456.258 222.806C457.695 220.188 461.514 217.043 464.136 215.742C473.141 211.276 481.456 212.846 490.443 215.661C490.181 208.394 489.727 208.045 484.145 203.448C476.69 202.223 472.941 203.754 465.874 205.322C464.786 205.563 463.96 204.737 463.21 204.077C462.134 202.032 462.492 198.622 462.536 196.188C467.689 194.788 471.998 193.591 477.308 192.885ZM483.073 235.748C485.737 233.597 490.063 230.764 490.236 227.051C490.522 220.879 480.802 220.651 476.666 220.959C462.481 227.063 469.469 237.804 483.073 235.748Z" fill="#021938"></path>
<path d="M534.856 192.824C544.984 192.118 548.136 193.24 557.169 196.973L554.514 208.034C547.862 205.434 540.405 201.558 533.334 204.591C520.682 210.019 522.206 228.933 534.792 233.532C542.396 236.311 548.603 233.096 555.303 230.053L555.448 230.102C556.538 231.053 558.571 237.977 559.189 239.843C555.199 242.432 553.292 243.704 548.404 244.801C533.566 248.126 516.26 241.007 512.489 225.3C511.213 219.988 511.878 210.911 514.958 206.356C516.831 203.588 519.204 200.86 521.168 197.92C524.432 196.446 531.576 193.359 534.856 192.824Z" fill="#021938"></path>
<path d="M709.739 195.424C711.571 195.385 711.176 195.106 712.282 196.082C713.06 198.954 712.616 203.732 712.514 206.86C695.623 206.297 694.262 213.975 694.255 228.974C694.254 234.234 694.283 239.736 694.3 245.015C691.473 245.003 685.762 245.269 683.093 244.494C682.788 244.405 682.671 243.779 682.52 243.366C682.247 230.856 681.685 207.922 682.586 195.796L694.454 195.662C694.381 197.501 694.261 198.768 694.596 200.579C695.734 200.896 700.269 197.183 702.672 196.537C705.617 195.744 706.738 195.685 709.739 195.424Z" fill="#0155A8"></path>
</svg>